<svg width="58" height="72" viewBox="0 0 58 72" fill="none" xmlns="http://www.w3.org/2000/svg">
<path d="M3 22.8989V55.1162H36.0898C46.5258 44.5034 45.3168 31.9956 43.4078 27.0682" stroke="black" stroke-width="5" stroke-linecap="round" stroke-linejoin="round"/>
<path d="M25.1793 55.1161C29.0438 53.305 33.445 45.8091 35.1625 42.2875V28.3269H12.6199V15.1209C14.4233 6.06534 21.1002 3.29837 24.2132 3.04683H38.7049C43.0846 2.44312 45.0383 7.82613 45.4677 10.5931V20.7806H50.2983" stroke="black" stroke-width="5" stroke-linejoin="round"/>
<path d="M56.5024 20.562C57.5688 19.779 57.7606 18.1941 56.9308 17.0219C56.101 15.8498 54.5638 15.5343 53.4974 16.3173L56.5024 20.562ZM50.4718 23.4268C51.2098 23.4278 51.9064 23.1853 52.3705 22.9971C52.8964 22.7838 53.4359 22.5066 53.9307 22.2273C54.9226 21.6674 55.8959 21.0073 56.5024 20.562L53.4974 16.3173C52.9977 16.6842 52.1732 17.2424 51.3674 17.6972C50.9634 17.9252 50.604 18.1046 50.3174 18.2208C49.9692 18.362 49.9398 18.3219 50.1247 18.3222L50.4718 23.4268Z" fill="black"/>
<path d="M31.8599 69.3296H23.0255H16.6282" stroke="black" stroke-width="5" stroke-linecap="round" stroke-linejoin="round"/>
<path d="M24.2441 55.1162V69.8035" stroke="black" stroke-width="5"/>
<path d="M11.8182 41.8501H23.8433" stroke="black" stroke-width="5" stroke-linecap="round" stroke-linejoin="round"/>
<ellipse cx="35.0666" cy="15.3183" rx="2.405" ry="2.8427" fill="black"/>
</svg>
