<svg width="210" height="76" viewBox="0 0 210 76" fill="none" xmlns="http://www.w3.org/2000/svg">
<path d="M142 24V36.94C142 44.4661 142 48.2292 143.511 51.0831C144.73 53.3861 146.614 55.2696 148.917 56.489C151.771 58 155.534 58 163.06 58H175.463C178.319 58 179.747 58 181.563 57.4593C182.686 57.1249 184.723 56.0983 185.66 55.3946C187.174 54.2568 187.654 53.6083 188.615 52.3111C195.77 42.6437 194.391 32.738 192.405 28.4" stroke="black" stroke-width="5" stroke-linecap="round" stroke-linejoin="round"/>
<path d="M169.667 58C173.528 56.469 177.819 51.0886 180.475 47.098C181.604 45.4016 182.12 43.3889 182.12 41.3512V41.3512C182.12 34.9321 176.916 29.7283 170.497 29.7283H166.487C159.591 29.7283 154 24.1378 154 17.2414V17.2414C154 16.2781 154.094 15.3091 154.387 14.3913C157.081 5.94624 164.775 3.30145 168.462 3.04942H186.538C191.497 2.47122 193.962 7.09666 194.776 10.1396C194.93 10.7157 194.974 11.3133 194.974 11.9096V15.7388C194.974 19.0667 197.672 21.7645 201 21.7645V21.7645" stroke="black" stroke-width="5" stroke-linejoin="round"/>
<path d="M208.184 21.4177C209.357 20.6892 209.717 19.1478 208.989 17.9749C208.26 16.8021 206.719 16.4419 205.546 17.1705L208.184 21.4177ZM200.997 24.3637C201.768 24.3646 202.54 24.1458 203.116 23.9481C203.745 23.7322 204.4 23.4483 205.01 23.1569C206.231 22.5737 207.434 21.8838 208.184 21.4177L205.546 17.1705C204.916 17.5616 203.876 18.1573 202.855 18.645C202.344 18.8892 201.877 19.087 201.493 19.2188C201.056 19.3688 200.922 19.3636 201.003 19.3637L200.997 24.3637Z" fill="black"/>
<path d="M178 73H166.98H159" stroke="black" stroke-width="5" stroke-linecap="round" stroke-linejoin="round"/>
<path d="M168.5 58V73.5" stroke="black" stroke-width="5"/>
<path d="M153 44H168" stroke="black" stroke-width="5" stroke-linecap="round" stroke-linejoin="round"/>
<circle cx="182" cy="16" r="3" fill="black"/>
<path d="M11.8 54.36C9.74667 54.36 7.97333 53.96 6.48 53.16C5.01333 52.3333 3.86667 51.1733 3.04 49.68C2.24 48.1867 1.84 46.4 1.84 44.32C1.84 42.2933 2.24 40.5333 3.04 39.04C3.84 37.52 4.93333 36.3333 6.32 35.48C7.73333 34.6267 9.36 34.2 11.2 34.2C12.5067 34.2 13.68 34.4267 14.72 34.88C15.76 35.3067 16.64 35.9333 17.36 36.76C18.1067 37.5867 18.6667 38.5867 19.04 39.76C19.44 40.9333 19.64 42.2533 19.64 43.72C19.64 44.1467 19.52 44.4667 19.28 44.68C19.04 44.8667 18.6933 44.96 18.24 44.96H4.32V42.84H17.48L16.84 43.36C16.84 41.92 16.6267 40.7067 16.2 39.72C15.7733 38.7067 15.1467 37.9333 14.32 37.4C13.52 36.8667 12.5067 36.6 11.28 36.6C9.92 36.6 8.76 36.92 7.8 37.56C6.86667 38.1733 6.16 39.04 5.68 40.16C5.2 41.2533 4.96 42.5333 4.96 44V44.24C4.96 46.6933 5.54667 48.56 6.72 49.84C7.92 51.12 9.61333 51.76 11.8 51.76C12.7067 51.76 13.6 51.64 14.48 51.4C15.3867 51.16 16.2667 50.76 17.12 50.2C17.4933 49.96 17.8267 49.8533 18.12 49.88C18.44 49.88 18.6933 49.9733 18.88 50.16C19.0667 50.32 19.1867 50.5333 19.24 50.8C19.32 51.04 19.2933 51.3067 19.16 51.6C19.0533 51.8933 18.8267 52.1467 18.48 52.36C17.6 53 16.56 53.4933 15.36 53.84C14.16 54.1867 12.9733 54.36 11.8 54.36ZM25.4891 44.96C25.0091 44.96 24.6091 44.8 24.2891 44.48C23.9691 44.16 23.8091 43.7733 23.8091 43.32C23.8091 42.84 23.9691 42.4533 24.2891 42.16C24.6091 41.84 25.0091 41.68 25.4891 41.68H34.2891C34.7424 41.68 35.1291 41.84 35.4491 42.16C35.7691 42.4533 35.9291 42.84 35.9291 43.32C35.9291 43.7733 35.7691 44.16 35.4491 44.48C35.1291 44.8 34.7424 44.96 34.2891 44.96H25.4891ZM43.9575 54C43.2375 54 42.6775 53.8133 42.2775 53.44C41.9042 53.04 41.7175 52.48 41.7175 51.76V28.04C41.7175 27.32 41.9042 26.7733 42.2775 26.4C42.6775 26 43.2375 25.8 43.9575 25.8H51.6775C56.3175 25.8 59.8908 27.0133 62.3975 29.44C64.9308 31.84 66.1975 35.32 66.1975 39.88C66.1975 42.1467 65.8775 44.16 65.2375 45.92C64.5975 47.68 63.6508 49.16 62.3975 50.36C61.1708 51.5333 59.6642 52.44 57.8775 53.08C56.0908 53.6933 54.0242 54 51.6775 54H43.9575ZM45.8775 50.52H51.4375C53.1975 50.52 54.7175 50.3067 55.9975 49.88C57.3042 49.4267 58.3975 48.76 59.2775 47.88C60.1575 47 60.8108 45.8933 61.2375 44.56C61.6642 43.2267 61.8775 41.6667 61.8775 39.88C61.8775 36.3333 60.9975 33.68 59.2375 31.92C57.5042 30.16 54.9042 29.28 51.4375 29.28H45.8775V50.52ZM83.1566 54.36C81.2632 54.36 79.5966 54.12 78.1566 53.64C76.7166 53.1333 75.5032 52.3867 74.5166 51.4C73.5566 50.4133 72.8232 49.1867 72.3166 47.72C71.8099 46.2533 71.5566 44.56 71.5566 42.64V27.6C71.5566 26.9067 71.7299 26.3867 72.0766 26.04C72.4499 25.6933 72.9699 25.52 73.6366 25.52C74.3032 25.52 74.8099 25.6933 75.1566 26.04C75.5299 26.3867 75.7166 26.9067 75.7166 27.6V42.56C75.7166 45.3067 76.3432 47.36 77.5966 48.72C78.8766 50.08 80.7299 50.76 83.1566 50.76C85.6099 50.76 87.4632 50.08 88.7166 48.72C89.9699 47.36 90.5966 45.3067 90.5966 42.56V27.6C90.5966 26.9067 90.7699 26.3867 91.1166 26.04C91.4899 25.6933 91.9966 25.52 92.6366 25.52C93.3032 25.52 93.8099 25.6933 94.1566 26.04C94.5032 26.3867 94.6766 26.9067 94.6766 27.6V42.64C94.6766 45.2 94.2366 47.36 93.3566 49.12C92.5032 50.8533 91.2232 52.16 89.5166 53.04C87.8099 53.92 85.6899 54.36 83.1566 54.36ZM103.173 54.28C102.506 54.28 101.986 54.0933 101.613 53.72C101.266 53.3467 101.093 52.8267 101.093 52.16V27.6C101.093 26.9067 101.266 26.3867 101.613 26.04C101.986 25.6933 102.506 25.52 103.173 25.52C103.839 25.52 104.346 25.6933 104.693 26.04C105.066 26.3867 105.253 26.9067 105.253 27.6V38.48H105.333L117.613 26.6C118.013 26.2267 118.386 25.96 118.733 25.8C119.106 25.6133 119.519 25.52 119.973 25.52C120.586 25.52 121.026 25.68 121.293 26C121.586 26.2933 121.706 26.6533 121.653 27.08C121.599 27.5067 121.373 27.92 120.973 28.32L108.213 40.48L108.293 38.44L121.573 51.24C122.053 51.6933 122.306 52.16 122.333 52.64C122.359 53.12 122.213 53.52 121.893 53.84C121.573 54.1333 121.119 54.28 120.533 54.28C119.999 54.28 119.573 54.1733 119.253 53.96C118.933 53.7467 118.559 53.44 118.133 53.04L105.333 40.84H105.253V52.16C105.253 52.8267 105.079 53.3467 104.733 53.72C104.386 54.0933 103.866 54.28 103.173 54.28Z" fill="black"/>
</svg>
