<svg width="24" height="24" viewBox="0 0 24 24" fill="none" xmlns="http://www.w3.org/2000/svg">
<g clip-path="url(#clip0_110_150)">
<path d="M12.0001 1.5C8.63339 1.5 5.93756 3.225 3.97506 5.27812C2.02506 7.3125 0.72089 9.75 0.104224 11.4234C-0.0332764 11.7937 -0.0332764 12.2062 0.104224 12.5766C0.72089 14.25 2.02506 16.6875 3.97506 18.7219C5.93756 20.775 8.63339 22.5 12.0001 22.5C15.3667 22.5 18.0626 20.775 20.0251 18.7219C21.9751 16.6828 23.2792 14.25 23.9001 12.5766C24.0376 12.2062 24.0376 11.7937 23.9001 11.4234C23.2792 9.75 21.9751 7.3125 20.0251 5.27812C18.0626 3.225 15.3667 1.5 12.0001 1.5ZM6.00006 12C6.00006 10.2098 6.6322 8.4929 7.75742 7.22703C8.88264 5.96116 10.4088 5.25 12.0001 5.25C13.5914 5.25 15.1175 5.96116 16.2427 7.22703C17.3679 8.4929 18.0001 10.2098 18.0001 12C18.0001 13.7902 17.3679 15.5071 16.2427 16.773C15.1175 18.0388 13.5914 18.75 12.0001 18.75C10.4088 18.75 8.88264 18.0388 7.75742 16.773C6.6322 15.5071 6.00006 13.7902 6.00006 12ZM12.0001 9C12.0001 10.6547 10.8042 12 9.33339 12C9.03756 12 8.75422 11.9437 8.48756 11.8453C8.25839 11.7609 7.99172 11.9203 8.00006 12.1922C8.01256 12.5156 8.05422 12.8391 8.13339 13.1625C8.70422 15.5625 10.9001 16.9875 13.0334 16.3453C15.1667 15.7031 16.4334 13.2328 15.8626 10.8328C15.4001 8.8875 13.8709 7.57969 12.1709 7.5C11.9292 7.49062 11.7876 7.78594 11.8626 8.04844C11.9501 8.34844 12.0001 8.66719 12.0001 9Z" fill="black"/>
</g>
<defs>
<clipPath id="clip0_110_150">
<rect width="24" height="24" fill="white"/>
</clipPath>
</defs>
</svg>
