<svg width="24" height="24" viewBox="0 0 24 24" fill="none" xmlns="http://www.w3.org/2000/svg">
<path d="M0 3H24C24 1.34531 22.8042 0 21.3333 0H2.66667C1.19583 0 0 1.34531 0 3ZM0 4.5V18C0 19.6547 1.19583 21 2.66667 21H21.3333C22.8042 21 24 19.6547 24 18V4.5H0ZM2.66667 17.4984C2.66667 16.1156 3.6625 15 4.8875 15H9.77917C11.0083 15 12 16.1203 12 17.4984C12 17.775 11.8 18 11.5542 18H3.1125C2.86667 18 2.66667 17.775 2.66667 17.4984ZM7.33333 7.5C8.04058 7.5 8.71885 7.81607 9.21895 8.37868C9.71905 8.94129 10 9.70435 10 10.5C10 11.2956 9.71905 12.0587 9.21895 12.6213C8.71885 13.1839 8.04058 13.5 7.33333 13.5C6.62609 13.5 5.94781 13.1839 5.44772 12.6213C4.94762 12.0587 4.66667 11.2956 4.66667 10.5C4.66667 9.70435 4.94762 8.94129 5.44772 8.37868C5.94781 7.81607 6.62609 7.5 7.33333 7.5ZM14.6667 8.25C14.6667 7.8375 14.9667 7.5 15.3333 7.5H20.6667C21.0333 7.5 21.3333 7.8375 21.3333 8.25C21.3333 8.6625 21.0333 9 20.6667 9H15.3333C14.9667 9 14.6667 8.6625 14.6667 8.25ZM14.6667 11.25C14.6667 10.8375 14.9667 10.5 15.3333 10.5H20.6667C21.0333 10.5 21.3333 10.8375 21.3333 11.25C21.3333 11.6625 21.0333 12 20.6667 12H15.3333C14.9667 12 14.6667 11.6625 14.6667 11.25ZM14.6667 14.25C14.6667 13.8375 14.9667 13.5 15.3333 13.5H20.6667C21.0333 13.5 21.3333 13.8375 21.3333 14.25C21.3333 14.6625 21.0333 15 20.6667 15H15.3333C14.9667 15 14.6667 14.6625 14.6667 14.25Z" fill="black"/>
</svg>
